# xmcd
#
# Track frame offsets:
#	150
#	16649
#	49260
#	64929
#	79156
#	92186
#	109956
#	128204
#	145978
#	164360
#	177604
#	197489
#	216956
#	233321
#	251921
#	268546
#	291490
#	308390
#	321521
#
# Disc length: 4526 seconds
#
# Revision: 1
# Processed by: cddbd v1.5.2PL0 Copyright (c) Steve Scherf et al.
# Submitted via: EZCDAudioConverter 7.1.7.1
#
DISCID=1a11ac13
DTITLE=Robert Cray Band - The Best Of Robert Cray
DYEAR=1
DGENRE=Blues
TTITLE0=Still Around
TTITLE1=I Was Warned
TTITLE2=Phone Booth
TTITLE3=Trick Or Treat
TTITLE4=Bad Influence
TTITLE5=Nothin' But A Woman
TTITLE6=Fantasized
TTITLE7=I Wonder
TTITLE8=Foul Play
TTITLE9=More Than I Can Stand
TTITLE10=Consequences
TTITLE11=Right Next Door (Because Of Me)
TTITLE12=I Guessed I SHowed Her
TTITLE13=Smoking Gun
TTITLE14=Playin' In The Dirt
TTITLE15=I Shiver
TTITLE16=Don't Be Afraid Of The Dark
TTITLE17=Bad Influence
TTITLE18=The Forecast (Calls For Pain)
EXTD=
EXTT0=
EXTT1=
EXTT2=
EXTT3=
EXTT4=
EXTT5=
EXTT6=
EXTT7=
EXTT8=
EXTT9=
EXTT10=
EXTT11=
EXTT12=
EXTT13=
EXTT14=
EXTT15=
EXTT16=
EXTT17=
EXTT18=
PLAYORDER=
